# xmcd
#
# Track frame offsets:
#	150
#	18022
#	34818
#	52995
#	72059
#	91724
#	110136
#	129187
#	148681
#	169356
#	184916
#	207954
#	230385
#	249040
#
# Disc length: 3569 seconds
#
# Revision: 1
# Processed by: cddbd v1.4PL0 Copyright (c) Steve Scherf et al.
# Submitted via: audiograbber 1.81.03
#
DISCID=b30def0e
DTITLE=ALEX BARONI - SEMPLICEMENTE
DYEAR=2002
DGENRE=Easy Listening
TTITLE0=La distanza di un amore
TTITLE1=Binario
TTITLE2=Speriamo
TTITLE3=Onde
TTITLE4=Dimmi che ci sei
TTITLE5=Pavimento liquido
TTITLE6=Cambiare
TTITLE7=Sei tu o lei (quello che voglio)
TTITLE8=Ce la farò
TTITLE9=Scrivi qualcosa per me
TTITLE10=Male che fa male
TTITLE11=Signora fantasia
TTITLE12=La voce della luna
TTITLE13=Dedicato a te
EXTD=
EXTT0=
EXTT1=
EXTT2=
EXTT3=
EXTT4=
EXTT5=
EXTT6=
EXTT7=
EXTT8=
EXTT9=
EXTT10=
EXTT11=
EXTT12=
EXTT13=
PLAYORDER=
